<svg width="24" height="25" viewBox="0 0 24 25" fill="none" xmlns="http://www.w3.org/2000/svg">
<path fill-rule="evenodd" clip-rule="evenodd" d="M16.5137 22H8.1659C5.09954 22 2.74714 20.8925 3.41533 16.4348L4.19336 10.3936C4.60526 8.16934 6.02402 7.31808 7.26888 7.31808H17.4474C18.7105 7.31808 20.0469 8.23342 20.5229 10.3936L21.3009 16.4348C21.8684 20.389 19.5801 22 16.5137 22Z" stroke="#75777E" stroke-width="1.5" stroke-linecap="round" stroke-linejoin="round"/>
<path opacity="0.4" d="M16.651 7.0984C16.651 4.71233 14.7167 2.77804 12.3307 2.77804V2.77804C11.1817 2.77317 10.0781 3.2262 9.26386 4.03695C8.44967 4.84771 7.99198 5.94939 7.99199 7.0984H7.99199" stroke="#75777E" stroke-width="1.5" stroke-linecap="round" stroke-linejoin="round"/>
<path d="M15.2963 11.6018H15.2506" stroke="#75777E" stroke-width="1.5" stroke-linecap="round" stroke-linejoin="round"/>
<path d="M9.46567 11.6018H9.41991" stroke="#75777E" stroke-width="1.5" stroke-linecap="round" stroke-linejoin="round"/>
</svg>
