<svg width="24" height="25" viewBox="0 0 24 25" fill="none" xmlns="http://www.w3.org/2000/svg">
<path d="M4.7943 7.55581C4.7943 6.30681 5.8073 5.29381 7.0553 5.29381H8.0843C8.6803 5.29381 9.2533 5.05781 9.6773 4.63681L10.3963 3.91681C11.2773 3.03181 12.7093 3.02781 13.5943 3.90881L13.6033 3.91681L14.3233 4.63681C14.7463 5.05781 15.3193 5.29381 15.9163 5.29381H16.9443C18.1933 5.29381 19.2063 6.30681 19.2063 7.55581V8.58281C19.2063 9.18081 19.4423 9.75281 19.8633 10.1768L20.5833 10.8968C21.4683 11.7778 21.4733 13.2088 20.5923 14.0948L20.5833 14.1038L19.8633 14.8238C19.4423 15.2458 19.2063 15.8198 19.2063 16.4158V17.4448C19.2063 18.6938 18.1933 19.7058 16.9443 19.7058H15.9163C15.3193 19.7058 14.7463 19.9428 14.3233 20.3638L13.6033 21.0828C12.7233 21.9688 11.2913 21.9728 10.4053 21.0918C10.4023 21.0888 10.3993 21.0858 10.3963 21.0828L9.6773 20.3638C9.2533 19.9428 8.6803 19.7058 8.0843 19.7058H7.0553C5.8073 19.7058 4.7943 18.6938 4.7943 17.4448V16.4158C4.7943 15.8198 4.5573 15.2458 4.1363 14.8238L3.4173 14.1038C2.5313 13.2228 2.5273 11.7908 3.4083 10.9058L3.4173 10.8968L4.1363 10.1768C4.5573 9.75281 4.7943 9.18081 4.7943 8.58281V7.55581" stroke="#75777E" stroke-width="1.5" stroke-linecap="round" stroke-linejoin="round"/>
<path opacity="0.4" d="M9.43001 15.0695L14.57 9.9295" stroke="#75777E" stroke-width="1.5" stroke-linecap="round" stroke-linejoin="round"/>
<path opacity="0.4" d="M14.5667 15.8224C14.3667 15.8224 14.1767 15.7424 14.0367 15.6024C13.9667 15.5324 13.9167 15.4424 13.8767 15.3524C13.8367 15.2624 13.8167 15.1734 13.8167 15.0724C13.8167 14.9724 13.8367 14.8724 13.8767 14.7824C13.9167 14.6924 13.9667 14.6124 14.0367 14.5424C14.3167 14.2624 14.8167 14.2624 15.0967 14.5424C15.1667 14.6124 15.2267 14.6924 15.2667 14.7824C15.2967 14.8724 15.3167 14.9724 15.3167 15.0724C15.3167 15.1734 15.2967 15.2624 15.2667 15.3524C15.2267 15.4424 15.1667 15.5324 15.0967 15.6024C14.9567 15.7424 14.7667 15.8224 14.5667 15.8224Z" fill="#130F26"/>
<path opacity="0.4" d="M9.42661 10.6828C9.32661 10.6828 9.23661 10.6618 9.14661 10.6218C9.05661 10.5818 8.96661 10.5328 8.89661 10.4628C8.82661 10.3828 8.77661 10.3028 8.73661 10.2128C8.69661 10.1218 8.67661 10.0328 8.67661 9.9328C8.67661 9.8318 8.69661 9.7328 8.73661 9.6428C8.77661 9.5528 8.82661 9.4628 8.89661 9.4028C9.18661 9.1218 9.67661 9.1218 9.95661 9.4028C10.0966 9.5418 10.1766 9.7328 10.1766 9.9328C10.1766 10.0328 10.1666 10.1218 10.1266 10.2128C10.0866 10.3028 10.0266 10.3828 9.95661 10.4628C9.88661 10.5328 9.80661 10.5818 9.71661 10.6218C9.62661 10.6618 9.52661 10.6828 9.42661 10.6828Z" fill="#130F26"/>
</svg>
