<svg width="16" height="16" viewBox="0 0 16 16" fill="none" xmlns="http://www.w3.org/2000/svg">
<g id="Folder">
<path id="Folder_2" fill-rule="evenodd" clip-rule="evenodd" d="M9.08744 2.66014H11.3899C14.1574 2.66014 15.5074 4.13764 15.4999 7.16764V10.8201C15.4999 13.7151 13.7149 15.5001 10.8124 15.5001H5.17994C2.29244 15.5001 0.499939 13.7151 0.499939 10.8126V5.18014C0.499939 2.07514 1.87994 0.500143 4.60244 0.500143H5.78744C6.48569 0.492643 7.13744 0.815143 7.56494 1.36264L8.22494 2.24014C8.43494 2.50264 8.74994 2.66014 9.08744 2.66014ZM4.52744 10.4676H11.4724C11.7799 10.4676 12.0274 10.2126 12.0274 9.90514C12.0274 9.59014 11.7799 9.34264 11.4724 9.34264H4.52744C4.21244 9.34264 3.96494 9.59014 3.96494 9.90514C3.96494 10.2126 4.21244 10.4676 4.52744 10.4676Z" fill="#151824"/>
</g>
</svg>
