<svg width="24" height="25" viewBox="0 0 24 25" fill="none" xmlns="http://www.w3.org/2000/svg">
<path fill-rule="evenodd" clip-rule="evenodd" d="M16.3027 3.24979H7.65069C4.63869 3.24979 2.74969 5.38379 2.74969 8.40379V16.5498C2.74969 19.5698 4.63069 21.7038 7.65069 21.7038H16.2977C19.3227 21.7038 21.2027 19.5698 21.2027 16.5498V8.40379C21.2067 5.38379 19.3257 3.24979 16.3027 3.24979Z" stroke="#75777E" stroke-width="1.5" stroke-linecap="round" stroke-linejoin="round"/>
<path opacity="0.4" fill-rule="evenodd" clip-rule="evenodd" d="M10.7031 9.285C10.7031 10.305 9.87709 11.131 8.85709 11.131C7.83809 11.131 7.01109 10.305 7.01109 9.285C7.01109 8.265 7.83809 7.439 8.85709 7.439C9.87609 7.44 10.7021 8.266 10.7031 9.285Z" stroke="#75777E" stroke-width="1.5" stroke-linecap="round" stroke-linejoin="round"/>
<path opacity="0.4" d="M21.207 15.451C20.284 14.501 18.509 12.582 16.579 12.582C14.648 12.582 13.535 16.815 11.678 16.815C9.821 16.815 8.134 14.901 6.646 16.128C5.158 17.354 3.75 19.861 3.75 19.861" stroke="#75777E" stroke-width="1.5" stroke-linecap="round" stroke-linejoin="round"/>
</svg>
