<svg width="24" height="25" viewBox="0 0 24 25" fill="none" xmlns="http://www.w3.org/2000/svg">
<path fill-rule="evenodd" clip-rule="evenodd" d="M20.8066 8.12358L20.1842 7.04349C19.6576 6.12957 18.4907 5.81429 17.5755 6.33869V6.33869C17.1399 6.59531 16.6201 6.66812 16.1307 6.54106C15.6413 6.41399 15.2226 6.09749 14.9668 5.66134C14.8023 5.38412 14.7139 5.06836 14.7105 4.74601V4.74601C14.7254 4.22919 14.5304 3.72837 14.17 3.35764C13.8096 2.98691 13.3145 2.77783 12.7975 2.77805H11.5435C11.037 2.77804 10.5513 2.97988 10.194 3.33891C9.83667 3.69795 9.63716 4.18456 9.63959 4.69109V4.69109C9.62458 5.73689 8.77246 6.57678 7.72655 6.57667C7.4042 6.57332 7.08844 6.48491 6.81122 6.32038V6.32038C5.89605 5.79598 4.7291 6.11126 4.20252 7.02519L3.53433 8.12358C3.00839 9.03636 3.31938 10.2026 4.22998 10.7323V10.7323C4.82189 11.074 5.18652 11.7056 5.18652 12.389C5.18652 13.0725 4.82189 13.704 4.22998 14.0458V14.0458C3.32054 14.5719 3.00921 15.7353 3.53433 16.6453V16.6453L4.16591 17.7346C4.41263 18.1798 4.82659 18.5083 5.31618 18.6474C5.80577 18.7866 6.33062 18.7249 6.77461 18.476V18.476C7.21106 18.2213 7.73117 18.1515 8.21932 18.2822C8.70748 18.4128 9.12322 18.733 9.37415 19.1716C9.53868 19.4489 9.62709 19.7646 9.63044 20.087V20.087C9.63044 21.1435 10.4869 22 11.5435 22H12.7975C13.8505 22 14.7055 21.1491 14.7105 20.0961V20.0961C14.7081 19.588 14.9089 19.1 15.2681 18.7407C15.6274 18.3814 16.1155 18.1806 16.6236 18.1831C16.9452 18.1917 17.2596 18.2797 17.5389 18.4394V18.4394C18.4517 18.9653 19.6179 18.6543 20.1476 17.7437V17.7437L20.8066 16.6453C21.0617 16.2075 21.1318 15.686 21.0012 15.1963C20.8706 14.7067 20.5502 14.2893 20.111 14.0366V14.0366C19.6717 13.7839 19.3514 13.3665 19.2208 12.8769C19.0902 12.3873 19.1602 11.8658 19.4153 11.4279C19.5812 11.1383 19.8214 10.8982 20.111 10.7323V10.7323C21.0161 10.2029 21.3264 9.04346 20.8066 8.13274V8.13274V8.12358Z" stroke="#75777E" stroke-width="1.5" stroke-linecap="round" stroke-linejoin="round"/>
<circle opacity="0.4" cx="12.1751" cy="12.389" r="2.63616" stroke="#75777E" stroke-width="1.5" stroke-linecap="round" stroke-linejoin="round"/>
</svg>
